<svg xmlns="http://www.w3.org/2000/svg" viewBox="0 0 370.09 369.69"><defs><style>.cls-1{fill:#ea0013;}.cls-2{fill:#1a1a1a;}</style></defs><title>favicon</title><g id="Слой_2" data-name="Слой 2"><g id="Режим_изоляции" data-name="Режим изоляции"><polygon class="cls-1" points="0 0 0 369.69 370.09 369.69 370.09 238.08 343.66 238.08 343.66 343.24 26.78 343.24 26.69 26.55 343.66 26.45 343.66 52.91 370.09 52.91 370.09 0 0 0"/><path class="cls-2" d="M277.19,135.55H231c0-3.6-8.76-29.91-45.91-29.91-27.21,0-33,14.41-33,23.78,0,22.09,36.87,26.56,58.81,32.15,24.83,6.27,73.45,19.24,73.45,68.14a68.92,68.92,0,0,1-27.5,55.1c-17,13.26-40.83,20.07-68.72,20.07-68.94,0-99.1-39.42-102.34-77.19h52.57c1,8.44,11.79,36.37,51.43,36.37,34,0,38.09-18,38.09-25.48,0-21.41-30-26.45-56.33-33.34-27.24-7.2-73.91-18.7-73.91-69,0-37,26.88-71.39,90.09-71.39,80.58,0,89.44,58.6,89.44,70.74"/></g></g></svg>